<svg xmlns="http://www.w3.org/2000/svg" width="17.086" height="17.086" viewBox="0 0 17.086 17.086">
  <path id="Icon_ionic-ios-help-buoy" data-name="Icon ionic-ios-help-buoy" d="M11.918,3.375a8.543,8.543,0,1,0,8.543,8.543A8.542,8.542,0,0,0,11.918,3.375Zm2.243,1.5a7.412,7.412,0,0,1,4.805,4.805l-3.647.246a3.944,3.944,0,0,0-1.392-1.4ZM6.69,6.69A7.34,7.34,0,0,1,9.675,4.87L9.91,8.525A4.034,4.034,0,0,0,8.517,9.918L4.866,9.675A7.422,7.422,0,0,1,6.69,6.69ZM9.675,18.966A7.412,7.412,0,0,1,4.87,14.16l3.655-.234a3.976,3.976,0,0,0,1.388,1.388Zm2.243-4.255a2.793,2.793,0,1,1,2.793-2.793A2.8,2.8,0,0,1,11.918,14.711Zm5.228,2.436a7.367,7.367,0,0,1-2.986,1.819l-.242-3.651a3.956,3.956,0,0,0,1.4-1.4l3.647.246A7.354,7.354,0,0,1,17.146,17.146Z" transform="translate(-3.375 -3.375)" fill="#fff"/>
</svg>
