<svg xmlns="http://www.w3.org/2000/svg" width="16.815" height="17.086" viewBox="0 0 16.815 17.086">
  <path id="Icon_awesome-power-off" data-name="Icon awesome-power-off" d="M13.852,1.834a8.406,8.406,0,1,1-9.77,0A.816.816,0,0,1,5.268,2.1l.536.953A.813.813,0,0,1,5.58,4.1a5.695,5.695,0,1,0,6.777,0,.809.809,0,0,1-.22-1.048l.536-.953a.813.813,0,0,1,1.18-.264ZM10.326,8.95V.814A.812.812,0,0,0,9.512,0H8.427a.812.812,0,0,0-.814.814V8.95a.812.812,0,0,0,.814.814H9.512A.812.812,0,0,0,10.326,8.95Z" transform="translate(-0.562)" fill="#fff"/>
</svg>
