<svg xmlns="http://www.w3.org/2000/svg" width="17.085" height="17.085" viewBox="0 0 17.085 17.085">
  <path id="Icon_ionic-ios-contact" data-name="Icon ionic-ios-contact" d="M11.918,3.375h0a8.539,8.539,0,0,0-8.493,7.643,8.232,8.232,0,0,0,0,1.8,8.539,8.539,0,0,0,8.493,7.643h0a8.543,8.543,0,0,0,0-17.085Zm5.577,13.393c-.932-.353-2.444-.871-3.384-1.15-.1-.029-.111-.037-.111-.439a2.337,2.337,0,0,1,.271-.957,4.773,4.773,0,0,0,.378-1.3,2.886,2.886,0,0,0,.559-1.351,1.8,1.8,0,0,0-.016-1.134.727.727,0,0,1-.025-.07,7.385,7.385,0,0,1,.127-1.594,2.934,2.934,0,0,0-.612-2.107,3.139,3.139,0,0,0-2.4-1.15H11.56a3.135,3.135,0,0,0-2.382,1.15,2.922,2.922,0,0,0-.616,2.107,7.385,7.385,0,0,1,.127,1.594c-.008.029-.016.049-.025.074a1.772,1.772,0,0,0-.016,1.134,2.93,2.93,0,0,0,.559,1.351,4.971,4.971,0,0,0,.378,1.3,2.294,2.294,0,0,1,.156.969c0,.407-.016.411-.107.439-.973.287-2.419.8-3.286,1.142A7.392,7.392,0,1,1,19.31,11.918,7.325,7.325,0,0,1,17.495,16.768Z" transform="translate(-3.375 -3.375)" fill="#fff"/>
</svg>
