<svg xmlns="http://www.w3.org/2000/svg" width="15.935" height="15.939" viewBox="0 0 15.935 15.939">
  <path id="Icon_ionic-ios-settings" data-name="Icon ionic-ios-settings" d="M19.119,12.467a2.05,2.05,0,0,1,1.315-1.913,8.128,8.128,0,0,0-.983-2.369,2.078,2.078,0,0,1-.834.178,2.046,2.046,0,0,1-1.871-2.88A8.1,8.1,0,0,0,14.38,4.5a2.049,2.049,0,0,1-3.826,0,8.128,8.128,0,0,0-2.369.983,2.046,2.046,0,0,1-1.871,2.88,2.01,2.01,0,0,1-.834-.178A8.307,8.307,0,0,0,4.5,10.558a2.05,2.05,0,0,1,0,3.826,8.128,8.128,0,0,0,.983,2.369,2.047,2.047,0,0,1,2.7,2.7,8.175,8.175,0,0,0,2.369.983,2.045,2.045,0,0,1,3.818,0,8.128,8.128,0,0,0,2.369-.983,2.049,2.049,0,0,1,2.7-2.7,8.175,8.175,0,0,0,.983-2.369A2.06,2.06,0,0,1,19.119,12.467ZM12.5,15.783a3.32,3.32,0,1,1,3.32-3.32A3.319,3.319,0,0,1,12.5,15.783Z" transform="translate(-4.5 -4.5)" fill="#fff"/>
</svg>
