<svg xmlns="http://www.w3.org/2000/svg" width="40" height="40" viewBox="60 144.95 40 40"><g data-name="Group 502"><path d="M60 164.9a20 20 0 1 1 0 .1z" fill="#00586b" fill-rule="evenodd" data-name="Ellipse 22"/><path d="M86.233 153.5a3.632 3.632 0 0 0-2.726 6.022c.513.59 1.206.996 1.96 1.155v2.213L80 165.734l-5.463-2.844v-2.213a3.63 3.63 0 0 0-.765-7.177 3.636 3.636 0 0 0-3.63 3.63c0 .877.319 1.73.9 2.392.513.59 1.206.996 1.96 1.155v2.947a.36.36 0 0 0 .2.324l6.033 3.121v2.254A3.63 3.63 0 0 0 80 176.5a3.632 3.632 0 0 0 2.726-6.022 3.588 3.588 0 0 0-1.961-1.155v-2.254l6.033-3.121a.36.36 0 0 0 .2-.324v-2.947a3.63 3.63 0 0 0-.765-7.177Zm-14.56 3.63c0-1.156.94-2.095 2.094-2.095 1.155 0 2.095.94 2.095 2.095 0 1.155-.94 2.094-2.095 2.094a2.097 2.097 0 0 1-2.094-2.094Zm10.422 15.74c0 1.156-.94 2.095-2.095 2.095a2.097 2.097 0 0 1-2.095-2.095c0-1.155.94-2.094 2.095-2.094 1.155 0 2.095.94 2.095 2.094Zm4.138-13.64a2.097 2.097 0 0 1-2.095-2.095c0-1.156.94-2.095 2.095-2.095 1.155 0 2.094.94 2.094 2.095a2.1 2.1 0 0 1-2.094 2.094Z" fill="#fff" fill-rule="evenodd" data-name="Icon ionic-ios-git-network"/></g></svg>