<svg xmlns="http://www.w3.org/2000/svg" width="40" height="40" viewBox="60 144.95 40 40"><g data-name="Group 502"><path d="M60 164.9a20 20 0 1 1 0 .1z" fill="#00586b" fill-rule="evenodd" data-name="Ellipse 22"/><path d="M88.134 156.867c-4.49-4.49-11.771-4.49-16.266 0-4.495 4.49-4.49 11.771 0 16.266 4.49 4.49 11.771 4.49 16.266 0 4.49-4.49 4.49-11.777 0-16.266Zm-17.333 8.564a.442.442 0 1 1-.173-.867.442.442 0 0 1 .173.867Zm1.448 4.545a.442.442 0 0 1-.58-.663.442.442 0 0 1 .58.663Zm.128-9.482a.442.442 0 0 1-.708.193.443.443 0 0 1-.127-.47.442.442 0 0 1 .707-.193.443.443 0 0 1 .128.47Zm3.4 12.689a.442.442 0 0 1-.708.193.443.443 0 0 1-.127-.47.442.442 0 0 1 .708-.193.443.443 0 0 1 .127.47Zm-.127-15.896a.442.442 0 0 1-.58-.663.442.442 0 0 1 .58.663Zm1.957 4.219a.446.446 0 0 1 .15-.608.446.446 0 0 1 .608.149l1.863 3.444c.138.26.215.548.215.84v6.746c0 .277-.165.442-.442.442-.276 0-.442-.165-.442-.442v-6.745a.91.91 0 0 0-.105-.42l-1.847-3.406Zm2.483 13.214a.442.442 0 1 1-.173-.867.442.442 0 0 1 .173.867Zm0-18.577a.442.442 0 1 1-.173-.867.442.442 0 0 1 .173.867Zm4.848 17.233a.442.442 0 0 1-.58-.663.442.442 0 0 1 .58.663Zm.128-16.282a.442.442 0 0 1-.708.193.443.443 0 0 1-.127-.47.442.442 0 0 1 .707-.193.443.443 0 0 1 .128.47Zm3.4 12.689a.442.442 0 0 1-.708.193.443.443 0 0 1-.127-.47.442.442 0 0 1 .708-.193.443.443 0 0 1 .127.47Zm-.127-9.096a.442.442 0 0 1-.58-.663.442.442 0 0 1 .58.663Zm1.04 4.744a.442.442 0 1 1-.173-.867.442.442 0 0 1 .172.867Z" fill="#fff" fill-rule="evenodd" data-name="Icon ionic-ios-clock"/></g></svg>