<svg xmlns="http://www.w3.org/2000/svg" width="16" height="16" viewBox="0 0 16 16">
  <g id="Settings" transform="translate(0.076 -0.151)">
    <circle id="Ellipse_15" data-name="Ellipse 15" cx="8" cy="8" r="8" transform="translate(-0.076 0.151)" opacity="0.5"/>
    <path id="Icon_ionic-ios-settings" data-name="Icon ionic-ios-settings" d="M14.367,9.877a1.384,1.384,0,0,1,.888-1.291,5.485,5.485,0,0,0-.664-1.6,1.4,1.4,0,0,1-.563.12,1.381,1.381,0,0,1-1.263-1.944,5.469,5.469,0,0,0-1.6-.664,1.383,1.383,0,0,1-2.582,0,5.485,5.485,0,0,0-1.6.664A1.381,1.381,0,0,1,5.724,7.107a1.357,1.357,0,0,1-.563-.12,5.607,5.607,0,0,0-.661,1.6,1.383,1.383,0,0,1,0,2.582,5.485,5.485,0,0,0,.664,1.6A1.381,1.381,0,0,1,6.99,14.593a5.517,5.517,0,0,0,1.6.664,1.38,1.38,0,0,1,2.577,0,5.485,5.485,0,0,0,1.6-.664,1.383,1.383,0,0,1,1.823-1.823,5.517,5.517,0,0,0,.664-1.6A1.39,1.39,0,0,1,14.367,9.877ZM9.9,12.115a2.24,2.24,0,1,1,2.24-2.24A2.24,2.24,0,0,1,9.9,12.115Z" transform="translate(-2.01 -2.001)" fill="#fff"/>
  </g>
</svg>
